<svg width="30" height="30" viewBox="0 0 30 30" fill="none" xmlns="http://www.w3.org/2000/svg">
<g clip-path="url(#clip0_2019_431)">
<path d="M24.03 11.91C23.76 11.41 23.23 11.09 22.68 11.09H16.75L18.54 1.76C18.59 1.32 18.52 0.93 18.33 0.63C18.17 0.37 17.93 0.18 17.63 0.08C17.46 0.03 17.29 0 17.12 0C16.66 0 16.21 0.19 15.93 0.52L5.28001 14.52C4.95001 14.96 4.91001 15.54 5.18001 16.07C5.45001 16.57 5.98001 16.89 6.53001 16.89L12.45 16.94L10.66 27.5C10.52 28.34 11.03 28.87 11.55 29.08C12.05 29.29 12.81 29.28 13.31 28.61L23.91 13.48C24.25 13.03 24.29 12.44 24.03 11.91ZM22.95 12.81L12.57 27.75C12.49 27.88 12.35 27.95 12.21 27.95C12.15 27.95 12.09 27.94 12.03 27.91C11.83 27.83 11.72 27.63 11.76 27.42L13.77 15.8L6.53001 15.76C6.38001 15.76 6.24001 15.67 6.17001 15.53C6.10001 15.4 6.12001 15.23 6.21001 15.11L16.59 1.29C16.72 1.12 16.94 1.06 17.13 1.15C17.33 1.23 17.43 1.43 17.39 1.64L15.39 12.13L22.62 12.18C22.78 12.18 22.91 12.26 22.98 12.39C23.05 12.53 23.04 12.69 22.95 12.81Z" fill="#394508"/>
</g>
<defs>
<clipPath id="clip0_2019_431">
<rect width="19.2" height="29.2" fill="white" transform="translate(5)"/>
</clipPath>
</defs>
</svg>
