<svg width="30" height="30" viewBox="0 0 30 30" fill="none" xmlns="http://www.w3.org/2000/svg">
<g clip-path="url(#clip0_2019_429)">
<path d="M25.64 5.31997L14.55 1.05997C14.36 0.989974 14.14 0.979974 13.95 1.05997L2.19 5.36997C2.07 5.44997 2 5.56997 2 5.69997V18.49C2 21.25 3.14 23.44 5.2 24.67L13.7 29.73C13.86 29.83 14.07 29.83 14.24 29.73L22.73 24.67C24.8 23.44 25.93 21.25 25.93 18.49V5.70997C25.93 5.53997 25.82 5.38997 25.64 5.31997ZM24.97 18.49C24.97 19.92 24.61 22.53 22.2 23.96L13.97 28.87L5.74 23.96H5.73L5.51 23.83C3.3 22.36 2.96 19.87 2.96 18.49V5.98997L14.25 1.75997L24.97 5.98997V18.49Z" fill="#394508"/>
<path d="M19.59 11.65C19.59 11.76 19.54 11.86 19.46 11.94L13.1 17.96C12.92 18.13 12.59 18.13 12.4 17.96L9.08996 14.83C9.00996 14.75 8.95996 14.64 8.95996 14.53C8.95996 14.43 9.00996 14.32 9.08996 14.24C9.18996 14.15 9.31996 14.11 9.43996 14.11C9.56996 14.11 9.69996 14.15 9.79996 14.24L12.75 17.04L18.76 11.36C18.95 11.18 19.27 11.18 19.46 11.36C19.54 11.44 19.59 11.54 19.59 11.65Z" fill="#394508"/>
</g>
<defs>
<clipPath id="clip0_2019_429">
<rect width="23.93" height="28.81" fill="white" transform="translate(2 1)"/>
</clipPath>
</defs>
</svg>
