<svg width="680" height="22" viewBox="0 0 680 22" fill="none" xmlns="http://www.w3.org/2000/svg">
<path d="M78.9582 8.01336C78.9582 8.24586 78.9054 8.48893 78.7997 8.74257C78.5249 9.41894 77.9859 9.8998 77.1827 10.1851C77.6055 10.2591 77.9859 10.3859 78.3241 10.5656C79.159 11.0095 79.5764 11.6858 79.5764 12.5947C79.5764 13.1337 79.4126 13.6304 79.085 14.0848C78.4509 14.9409 77.4469 15.3689 76.0731 15.3689H71.3807V14.9567H72.6489V6.26959H71.3807V5.85743H75.9779C76.6649 5.85743 77.2567 5.97368 77.7534 6.20618C78.5566 6.58664 78.9582 7.18903 78.9582 8.01336ZM75.4865 6.26959H74.1708V9.99491H75.4865C75.8775 9.99491 76.221 9.90508 76.5169 9.72542C77.077 9.3978 77.3571 8.86939 77.3571 8.14018C77.3571 8.01336 77.3465 7.88654 77.3254 7.75972C77.1986 6.7663 76.5856 6.26959 75.4865 6.26959ZM75.8194 10.4229H74.1708V14.9567H75.8353C76.3003 14.9567 76.7019 14.8246 77.0401 14.5604C77.6002 14.1165 77.8802 13.4613 77.8802 12.5947C77.8802 12.2565 77.8221 11.9395 77.7059 11.6436C77.3888 10.8298 76.76 10.4229 75.8194 10.4229ZM83.1204 14.9726C83.1733 14.9726 83.2261 14.9779 83.2789 14.9884C83.4269 15.0096 83.5009 15.1364 83.5009 15.3689H79.7121V14.9726C80.0609 14.9726 80.3198 14.9462 80.4889 14.8933C80.7743 14.7982 80.9169 14.5129 80.9169 14.0373V5.46112H79.7121V5.06481H82.2644V14.9726H83.1204ZM85.0474 11.9765C85.058 14.0584 85.7238 15.11 87.0448 15.1311C88.3236 15.1205 88.9683 14.0478 88.9788 11.9131C88.9683 9.88394 88.313 8.85882 87.0131 8.83769C85.7132 8.84825 85.058 9.89451 85.0474 11.9765ZM87.0607 8.44137C87.811 8.44137 88.4821 8.64217 89.0739 9.04377C90.0251 9.699 90.5007 10.6713 90.5007 11.9606C90.5007 12.9329 90.1942 13.7519 89.5812 14.4177C88.9049 15.1575 88.0435 15.5274 86.9973 15.5274C86.2364 15.5274 85.5494 15.3055 84.9365 14.8616C84.0065 14.1852 83.5415 13.2024 83.5415 11.9131C83.5415 10.9725 83.8374 10.1799 84.4292 9.53519C85.1161 8.80598 85.9933 8.44137 87.0607 8.44137ZM92.2375 11.9765C92.248 14.0584 92.9138 15.11 94.2349 15.1311C95.5136 15.1205 96.1583 14.0478 96.1689 11.9131C96.1583 9.88394 95.5031 8.85882 94.2032 8.83769C92.9033 8.84825 92.248 9.89451 92.2375 11.9765ZM94.2507 8.44137C95.0011 8.44137 95.6721 8.64217 96.264 9.04377C97.2151 9.699 97.6907 10.6713 97.6907 11.9606C97.6907 12.9329 97.3842 13.7519 96.7712 14.4177C96.0949 15.1575 95.2336 15.5274 94.1873 15.5274C93.4264 15.5274 92.7394 15.3055 92.1265 14.8616C91.1965 14.1852 90.7315 13.2024 90.7315 11.9131C90.7315 10.9725 91.0274 10.1799 91.6192 9.53519C92.3061 8.80598 93.1833 8.44137 94.2507 8.44137ZM100.886 14.9726C100.939 14.9726 100.992 14.9779 101.044 14.9884C101.192 15.0096 101.266 15.1364 101.266 15.3689H97.763V14.9726C98.0695 14.9726 98.302 14.9514 98.4605 14.9092C98.7564 14.814 98.9043 14.5234 98.9043 14.0373V9.01206H97.763V8.61575H100.173L100.236 10.09C100.331 9.87866 100.442 9.67786 100.569 9.48763C101.076 8.79013 101.731 8.44137 102.535 8.44137C102.735 8.44137 102.931 8.47836 103.121 8.55234C103.755 8.79541 104.173 9.31326 104.373 10.1059C104.426 9.97906 104.484 9.85752 104.548 9.74127C105.045 8.87467 105.737 8.44137 106.624 8.44137C106.994 8.44137 107.338 8.53649 107.655 8.72672C108.363 9.17059 108.717 9.92622 108.717 10.9936V14.9726H109.462C109.525 14.9726 109.578 14.9779 109.621 14.9884C109.779 15.0096 109.858 15.1364 109.858 15.3689H106.339V14.9726C106.656 14.9726 106.889 14.9462 107.037 14.8933C107.259 14.7982 107.37 14.5129 107.37 14.0373V10.8351C107.37 10.5075 107.322 10.2168 107.227 9.96321C107.016 9.40309 106.646 9.12303 106.117 9.12303C105.938 9.12303 105.753 9.17059 105.562 9.2657C105.013 9.54048 104.653 10.0636 104.484 10.8351V11.0095V14.9726H105.103C105.166 14.9726 105.219 14.9779 105.261 14.9884C105.42 15.0096 105.499 15.1364 105.499 15.3689H102.107V14.9726C102.424 14.9726 102.656 14.9462 102.804 14.8933C103.015 14.7982 103.121 14.5129 103.121 14.0373V10.8351C103.121 10.5392 103.084 10.2697 103.01 10.0266C102.82 9.44536 102.471 9.15473 101.964 9.15473C101.689 9.15473 101.42 9.25513 101.155 9.45593C100.574 9.88923 100.273 10.5656 100.252 11.485V14.9726H100.886ZM113.006 14.9726C113.069 14.9726 113.122 14.9779 113.165 14.9884C113.323 15.0096 113.402 15.1364 113.402 15.3689H109.709V14.9726C110.026 14.9726 110.264 14.9514 110.422 14.9092C110.75 14.814 110.914 14.5234 110.914 14.0373V9.01206H109.709V8.61575H112.261V14.9726H113.006ZM112.435 6.34886C112.435 6.48624 112.404 6.62363 112.34 6.76102C112.171 7.10977 111.896 7.28415 111.516 7.28415C111.379 7.28415 111.246 7.25773 111.12 7.20489C110.76 7.03579 110.581 6.75045 110.581 6.34886C110.581 6.21147 110.612 6.07408 110.676 5.93669C110.845 5.58794 111.125 5.41356 111.516 5.41356C111.653 5.41356 111.791 5.44527 111.928 5.50868C112.266 5.68834 112.435 5.9684 112.435 6.34886ZM116.455 14.9726C116.518 14.9726 116.571 14.9779 116.613 14.9884C116.772 15.0096 116.851 15.1364 116.851 15.3689H113.316V14.9726C113.623 14.9726 113.855 14.9514 114.014 14.9092C114.31 14.814 114.457 14.5234 114.457 14.0373V9.01206H113.316V8.61575H115.726L115.789 10.1059C115.895 9.84167 116.037 9.60389 116.217 9.39252C116.735 8.75842 117.385 8.44137 118.167 8.44137C118.537 8.44137 118.886 8.53121 119.213 8.71087C119.974 9.1336 120.355 9.8998 120.355 11.0095V14.9726H121.1C121.163 14.9726 121.216 14.9779 121.258 14.9884C121.417 15.0096 121.496 15.1364 121.496 15.3689H117.913V14.9726C118.22 14.9726 118.447 14.9462 118.595 14.8933C118.87 14.7982 119.007 14.5129 119.007 14.0373V10.8351C119.007 10.5603 118.97 10.3067 118.896 10.0742C118.685 9.46121 118.257 9.15473 117.612 9.15473C117.337 9.15473 117.063 9.23928 116.788 9.40837C116.154 9.8311 115.826 10.5233 115.805 11.485V14.9726H116.455ZM123.074 10.9778C123.074 11.0729 123.074 11.168 123.074 11.2631C123.138 12.5313 123.634 13.1654 124.564 13.1654C125.452 13.102 125.943 12.3728 126.039 10.9778C126.039 10.7875 126.033 10.6132 126.023 10.4546C125.917 9.37667 125.431 8.83769 124.564 8.83769C124.49 8.83769 124.416 8.84297 124.342 8.85354C123.497 8.94865 123.074 9.65673 123.074 10.9778ZM124.58 8.44137C125.172 8.44137 125.711 8.57348 126.197 8.83769C126.25 8.64746 126.335 8.4678 126.451 8.2987C126.757 7.82313 127.159 7.58534 127.656 7.58534C127.782 7.58534 127.904 7.60648 128.02 7.64875C128.358 7.77557 128.527 8.01336 128.527 8.36211C128.527 8.39382 128.522 8.43609 128.512 8.48893C128.459 8.75314 128.3 8.88524 128.036 8.88524C127.93 8.88524 127.819 8.8324 127.703 8.72672C127.523 8.55763 127.36 8.47308 127.212 8.47308C126.926 8.50478 126.704 8.70558 126.546 9.07547C127.138 9.54048 127.439 10.1693 127.449 10.9619C127.449 11.5749 127.254 12.1139 126.863 12.5789C126.292 13.2341 125.521 13.5617 124.548 13.5617H124.501L123.09 13.5459C123.006 13.5459 122.926 13.5564 122.852 13.5776C122.535 13.641 122.377 13.8048 122.377 14.069C122.387 14.4389 122.62 14.6397 123.074 14.6714L126.039 14.7348C126.187 14.7348 126.329 14.7454 126.467 14.7665C127.534 14.9039 128.068 15.4429 128.068 16.3834C128.068 16.6793 127.983 16.9594 127.814 17.2236C127.296 18.0057 126.224 18.3967 124.596 18.3967C123.951 18.3967 123.402 18.3016 122.947 18.1113C122.25 17.826 121.901 17.3927 121.901 16.8115C121.901 16.4521 122.07 16.0875 122.408 15.7176C121.975 15.4429 121.753 15.0254 121.743 14.4653C121.743 14.3068 121.764 14.1535 121.806 14.0056C121.996 13.4349 122.419 13.1495 123.074 13.1495C122.99 13.0967 122.9 13.0386 122.805 12.9752C122.044 12.4362 121.663 11.7704 121.663 10.9778C121.663 10.3859 121.848 9.86809 122.218 9.42422C122.778 8.76899 123.566 8.44137 124.58 8.44137ZM124.596 17.9845C125.103 17.9845 125.568 17.937 125.991 17.8419C126.868 17.6305 127.307 17.287 127.307 16.8115C127.307 16.6952 127.286 16.5842 127.243 16.4786C127.117 16.1826 126.683 16.0294 125.943 16.0188L123.344 15.9871C123.164 15.9871 122.979 15.9607 122.789 15.9079C122.567 16.1826 122.451 16.4574 122.44 16.7322C122.44 16.8801 122.477 17.0281 122.551 17.1761C122.836 17.715 123.518 17.9845 124.596 17.9845Z" fill="#619111"/>
<g clip-path="url(#clip0_2046_1789)">
<path d="M43.7556 8.51013V8.5892C43.7341 6.43287 44.575 4.31247 46.1492 2.73835C47.7089 1.1786 49.7934 0.337631 51.9281 0.337631H56.5642C58.699 0.337631 60.7763 1.1786 62.336 2.73116C63.903 4.30528 64.7367 6.41849 64.7159 8.58201V8.50295V13.1391V13.06C64.7375 15.2163 63.8965 17.3367 62.3224 18.9108C60.7483 20.485 58.635 21.3188 56.4715 21.3044H56.5506H51.9145H51.9935C49.8372 21.3259 47.7168 20.485 46.1427 18.9108C44.5686 17.3367 43.7348 15.2235 43.7492 13.06V13.1391L43.7563 8.51013H43.7556ZM44 10.4796C43.9785 10.3933 43.9569 10.3143 43.9425 10.228C43.9569 10.3143 43.9785 10.4005 44 10.4796C44.0216 10.5658 44.036 10.6449 44.0431 10.7383C44.0216 10.6521 44.0144 10.5658 44 10.4796ZM43.7556 8.69702C43.7556 8.74733 43.7556 8.79046 43.7628 8.83358C43.7628 8.79046 43.7628 8.74733 43.7556 8.69702ZM43.7628 8.95578C43.7628 9.00609 43.77 9.04922 43.77 9.09234C43.77 9.04922 43.7628 8.9989 43.7628 8.95578ZM43.7772 9.20735C43.7844 9.25048 43.7844 9.30079 43.7916 9.33673C43.7916 9.30079 43.7844 9.25766 43.7772 9.20735ZM43.885 9.97644C43.8922 10.0196 43.8994 10.0699 43.9138 10.1058C43.9066 10.0699 43.8922 10.0196 43.885 9.97644ZM59.3459 5.18938C58.9434 4.28372 58.3828 3.4715 57.6712 2.75991C56.8302 1.91894 55.8167 1.27204 54.7098 0.869527C54.4079 0.754522 54.0773 0.754522 53.7682 0.869527C52.6613 1.27204 51.6406 1.91894 50.8068 2.75991C50.0952 3.4715 49.5346 4.28372 49.1321 5.18938C49.0746 5.31157 49.1968 5.43377 49.319 5.39064C50.7853 4.90187 52.3881 4.82999 53.8976 5.21094C54.1204 5.26845 54.3504 5.26845 54.5732 5.21094C56.0827 4.83718 57.6855 4.90187 59.1518 5.39064C59.2812 5.44095 59.4034 5.31876 59.3459 5.18938ZM64.442 10.7383C64.4492 10.6521 64.4636 10.5658 64.4852 10.4796C64.5067 10.3933 64.5283 10.3143 64.5427 10.228C64.5211 10.3143 64.5067 10.3933 64.4852 10.4796C64.4564 10.5658 64.4492 10.6521 64.442 10.7383ZM64.708 8.84077C64.708 8.79046 64.7152 8.74733 64.7152 8.7042C64.708 8.74733 64.708 8.79046 64.708 8.84077ZM64.6074 9.84706C64.6146 9.80394 64.6217 9.76081 64.6289 9.71768C64.6217 9.768 64.6146 9.81112 64.6074 9.84706ZM64.6792 9.34392C64.6864 9.30079 64.6864 9.25048 64.6936 9.21454C64.6864 9.25766 64.6792 9.30079 64.6792 9.34392ZM64.7008 9.09234C64.7008 9.04203 64.708 8.9989 64.708 8.95578C64.708 8.9989 64.7008 9.04922 64.7008 9.09234ZM64.4708 11.1696C64.4924 11.2559 64.5139 11.3349 64.5283 11.4212C64.5139 11.3349 64.4924 11.2487 64.4708 11.1696C64.4492 11.0834 64.4349 11.0043 64.4277 10.9109C64.4492 10.9971 64.4564 11.0834 64.4708 11.1696ZM64.7159 12.9522C64.7159 12.9019 64.7159 12.8587 64.7087 12.8156C64.7087 12.8587 64.7087 12.9019 64.7159 12.9522ZM64.708 12.6934C64.708 12.6431 64.7008 12.6 64.7008 12.5569C64.7008 12.6 64.708 12.6503 64.708 12.6934ZM64.6936 12.4418C64.6864 12.3987 64.6864 12.3484 64.6792 12.3125C64.6792 12.3484 64.6864 12.3915 64.6936 12.4418ZM64.6289 11.9243C64.6217 11.8812 64.6146 11.8381 64.6074 11.7949C64.6146 11.8453 64.6217 11.8812 64.6289 11.9243ZM64.5858 11.6728C64.5786 11.6296 64.5714 11.5793 64.5571 11.5434C64.5642 11.5793 64.5786 11.6296 64.5858 11.6728ZM59.8491 10.4796C59.7916 10.7024 59.7916 10.9324 59.8491 11.1552C60.2228 12.6647 60.1581 14.2675 59.6694 15.7339C59.6262 15.8632 59.7556 15.9782 59.8706 15.9207C60.7763 15.5182 61.5885 14.9576 62.3001 14.246C63.1411 13.405 63.788 12.3915 64.1905 11.2846C64.3055 10.9827 64.3055 10.6521 64.1905 10.343C63.788 9.2361 63.1411 8.21544 62.3001 7.38165C61.5885 6.67006 60.7763 6.10942 59.8706 5.7069C59.7484 5.6494 59.6262 5.77159 59.6694 5.89378C60.1581 7.38165 60.2156 8.97015 59.8491 10.4796ZM54.5804 21.06C54.6667 21.0816 54.7457 21.1031 54.832 21.1175C54.7457 21.1031 54.6595 21.0816 54.5804 21.06C54.4942 21.0384 54.4151 21.0241 54.3217 21.0169C54.4079 21.0384 54.4942 21.0456 54.5804 21.06ZM56.363 21.3044C56.3127 21.3044 56.2695 21.3044 56.2264 21.2972C56.2695 21.2972 56.3127 21.2972 56.363 21.3044ZM56.1042 21.2972C56.0539 21.2972 56.0108 21.29 55.9677 21.29C56.0108 21.29 56.0611 21.2972 56.1042 21.2972ZM55.8527 21.2828C55.8095 21.2756 55.7592 21.2756 55.7233 21.2684C55.7592 21.2684 55.8023 21.2756 55.8527 21.2828ZM55.0836 21.175C55.0404 21.1678 54.9901 21.1606 54.9542 21.1462C54.9901 21.1534 55.0404 21.1678 55.0836 21.175ZM54.1492 21.0312C54.0629 21.0384 53.9766 21.0528 53.8904 21.0744C53.8041 21.0959 53.7251 21.1175 53.6388 21.1319C53.7251 21.1103 53.8041 21.0959 53.8904 21.0744C53.9766 21.0456 54.0629 21.0384 54.1492 21.0312ZM52.2516 21.2972C52.2013 21.2972 52.1581 21.3044 52.115 21.3044C52.1581 21.2972 52.2013 21.2972 52.2516 21.2972ZM53.2579 21.1966C53.2147 21.2038 53.1716 21.2109 53.1285 21.2181C53.1788 21.2109 53.2219 21.2038 53.2579 21.1966ZM52.7547 21.2684C52.7116 21.2756 52.6613 21.2756 52.6253 21.2828C52.6685 21.2756 52.7116 21.2684 52.7547 21.2684ZM52.5032 21.29C52.4528 21.29 52.4097 21.2972 52.3666 21.2972C52.4097 21.2972 52.46 21.29 52.5032 21.29ZM49.1249 16.4598C49.5274 17.3655 50.0881 18.1777 50.7996 18.8893C51.6406 19.7303 52.6541 20.3772 53.761 20.7797C54.0629 20.8947 54.3935 20.8947 54.7026 20.7797C55.8095 20.3772 56.8302 19.7303 57.664 18.8893C58.3756 18.1777 58.9362 17.3583 59.3387 16.4598C59.3962 16.3376 59.274 16.2154 59.1518 16.2586C57.6855 16.7545 56.0827 16.8192 54.5732 16.4383C54.3504 16.3808 54.1204 16.3808 53.8976 16.4383C52.3881 16.8192 50.7853 16.7473 49.319 16.2586C49.1896 16.2082 49.0674 16.3304 49.1249 16.4598ZM48.9093 11.2918C49.3118 12.3987 49.9587 13.4194 50.7996 14.2532C51.6406 15.0941 52.6541 15.741 53.761 16.1436C54.0629 16.2586 54.3935 16.2586 54.7026 16.1436C55.8095 15.741 56.8302 15.0941 57.664 14.2532C58.5049 13.4194 59.159 12.4059 59.5544 11.2918C59.6694 10.9899 59.6694 10.6593 59.5544 10.3502C59.1518 9.24329 58.5049 8.22262 57.664 7.38884C56.823 6.55506 55.8095 5.90097 54.7026 5.49846C54.4007 5.38345 54.0701 5.38345 53.761 5.49846C52.6541 5.90097 51.6334 6.54787 50.7996 7.38884C49.9587 8.22981 49.3118 9.24329 48.9093 10.3502C48.8086 10.6593 48.8086 10.9899 48.9093 11.2918ZM44.2803 11.2918C44.6829 12.3987 45.3298 13.4194 46.1707 14.2532C46.8823 14.9648 47.6945 15.5254 48.6002 15.9279C48.7224 15.9854 48.8446 15.8632 48.8014 15.741C48.3127 14.2747 48.2408 12.6719 48.6218 11.1624C48.6793 10.9396 48.6793 10.7096 48.6218 10.4868C48.248 8.97734 48.3127 7.37447 48.8014 5.90816C48.8446 5.77878 48.7152 5.66377 48.6002 5.72128C47.6945 6.12379 46.8823 6.68444 46.1707 7.39603C45.3298 8.237 44.6829 9.25047 44.2803 10.3574C44.1725 10.6593 44.1725 10.9899 44.2803 11.2918ZM44.0288 10.9109C44.0216 10.9971 44.0072 11.0834 43.9856 11.1696C43.9641 11.2559 43.9425 11.3349 43.9281 11.4212C43.9497 11.3349 43.9641 11.2559 43.9856 11.1696C44.0144 11.0834 44.0216 10.9971 44.0288 10.9109ZM43.7628 12.8084C43.7628 12.8587 43.7556 12.9019 43.7556 12.945C43.7628 12.9019 43.7628 12.8587 43.7628 12.8084ZM43.8634 11.8021C43.8563 11.8453 43.8491 11.8884 43.8419 11.9315C43.8491 11.8812 43.8563 11.8453 43.8634 11.8021ZM43.7916 12.3053C43.7844 12.3484 43.7844 12.3987 43.7772 12.4347C43.7844 12.3915 43.7916 12.3484 43.7916 12.3053ZM43.77 12.5569C43.77 12.6072 43.7628 12.6503 43.7628 12.6934C43.7628 12.6503 43.77 12.6 43.77 12.5569Z" fill="#619111"/>
</g>
<path d="M193.21 6.55573L187.507 17.378H176.978L179.83 11.9669H187.124V6.55573H193.21ZM187.124 1.82135V6.55573H182.681L179.83 11.9669H176.978V1.82135H187.124Z" fill="#619111"/>
<path d="M203.399 16.8214V5.29601H207.539C208.924 5.29601 209.968 5.54491 210.672 6.04272C211.375 6.54053 211.727 7.33053 211.727 8.41272C211.727 8.89971 211.624 9.32717 211.418 9.69512C211.213 10.0631 210.91 10.3553 210.509 10.5717C210.12 10.7773 209.655 10.8855 209.113 10.8964L209.097 10.8314C210.082 10.8531 210.845 11.1236 211.386 11.6431C211.938 12.1517 212.214 12.8227 212.214 13.6559C212.214 14.7057 211.862 15.4957 211.159 16.0259C210.455 16.5562 209.454 16.8214 208.156 16.8214H203.399ZM205.153 15.2468H208.107C208.832 15.2468 209.395 15.1007 209.795 14.8085C210.206 14.5055 210.412 14.0672 210.412 13.4936C210.412 12.9309 210.206 12.4926 209.795 12.1787C209.395 11.8649 208.832 11.708 208.107 11.708H205.153V15.2468ZM205.153 10.2146H207.506C208.275 10.2146 208.87 10.0685 209.292 9.77628C209.714 9.48409 209.925 9.07286 209.925 8.54258C209.925 7.97984 209.719 7.5632 209.308 7.29265C208.908 7.01128 208.307 6.8706 207.506 6.8706H205.153V10.2146ZM216.073 17.0161C215.208 17.0161 214.515 16.7294 213.996 16.1558C213.487 15.5714 213.233 14.7652 213.233 13.7371V8.18546H214.953V13.2988C214.953 14.078 215.089 14.6516 215.359 15.0195C215.63 15.3874 216.041 15.5714 216.593 15.5714C217.221 15.5714 217.707 15.3712 218.054 14.9708C218.411 14.5596 218.589 13.986 218.589 13.2501V8.18546H220.31V16.8214H218.703L218.671 14.565L218.914 14.6624C218.763 15.4199 218.443 16.0043 217.956 16.4155C217.469 16.8159 216.842 17.0161 216.073 17.0161ZM221.564 16.8214V8.18546H223.285V16.8214H221.564ZM221.532 6.93553V5.21484H223.317V6.93553H221.532ZM226.5 16.8214C225.937 16.8214 225.482 16.6753 225.136 16.3831C224.79 16.0909 224.617 15.6255 224.617 14.987V5.29601H226.337V14.8247C226.337 15.0195 226.386 15.1656 226.483 15.263C226.592 15.3604 226.743 15.4091 226.938 15.4091H227.62V16.8214H226.5ZM231.181 17.0161C230.445 17.0161 229.801 16.8322 229.249 16.4642C228.708 16.0963 228.292 15.5768 227.999 14.9059C227.718 14.2241 227.577 13.4233 227.577 12.5034C227.577 11.5835 227.723 10.7881 228.016 10.1172C228.308 9.43539 228.724 8.91053 229.266 8.54258C229.807 8.17464 230.445 7.99067 231.181 7.99067C231.776 7.99067 232.306 8.11512 232.772 8.36402C233.237 8.61293 233.589 8.95923 233.827 9.40293V5.29601H235.548V16.8214H233.941L233.892 15.5227C233.654 15.9881 233.291 16.356 232.804 16.6266C232.328 16.8863 231.787 17.0161 231.181 17.0161ZM231.636 15.5227C232.101 15.5227 232.496 15.4037 232.821 15.1656C233.145 14.9275 233.394 14.5812 233.567 14.1267C233.74 13.6722 233.827 13.1311 233.827 12.5034C233.827 11.8541 233.74 11.3076 233.567 10.8639C233.394 10.4094 233.145 10.0685 232.821 9.84121C232.496 9.60313 232.101 9.48409 231.636 9.48409C230.943 9.48409 230.391 9.75464 229.98 10.2957C229.569 10.826 229.363 11.5619 229.363 12.5034C229.363 13.4341 229.569 14.17 229.98 14.7111C230.391 15.2522 230.943 15.5227 231.636 15.5227ZM236.908 16.8214V5.29601H241.502C242.325 5.29601 243.033 5.43669 243.629 5.71806C244.224 5.99943 244.684 6.39984 245.008 6.9193C245.333 7.43875 245.495 8.0556 245.495 8.76984C245.495 9.2893 245.376 9.75464 245.138 10.1659C244.911 10.5771 244.603 10.9072 244.213 11.1561C243.834 11.3942 243.428 11.5294 242.996 11.5619L242.914 11.4158C243.64 11.4158 244.202 11.5835 244.603 11.919C245.003 12.2437 245.236 12.7577 245.301 13.4611L245.609 16.8214H243.84L243.564 13.6884C243.531 13.2231 243.374 12.8822 243.093 12.6657C242.812 12.4385 242.352 12.3248 241.713 12.3248H238.661V16.8214H236.908ZM238.661 10.7178H241.535C242.195 10.7178 242.714 10.5555 243.093 10.2308C243.483 9.89532 243.677 9.42457 243.677 8.81854C243.677 8.20169 243.483 7.73094 243.093 7.40628C242.703 7.0708 242.135 6.90306 241.389 6.90306H238.661V10.7178ZM246.789 16.8214V8.18546H248.51V16.8214H246.789ZM246.757 6.93553V5.21484H248.542V6.93553H246.757ZM253.284 19.4511C252.602 19.4511 252.001 19.3483 251.482 19.1427C250.962 18.937 250.535 18.6448 250.199 18.2661C249.864 17.8981 249.637 17.4653 249.518 16.9674L251.303 16.8538C251.422 17.2109 251.628 17.4923 251.92 17.6979C252.223 17.9144 252.678 18.0226 253.284 18.0226C253.998 18.0226 254.544 17.8711 254.923 17.5681C255.313 17.265 255.508 16.8051 255.508 16.1883V14.9383C255.302 15.382 254.972 15.7337 254.517 15.9935C254.063 16.2532 253.554 16.3831 252.992 16.3831C252.266 16.3831 251.623 16.2045 251.06 15.8474C250.497 15.4903 250.059 14.9979 249.745 14.3702C249.431 13.7425 249.274 13.0174 249.274 12.195C249.274 11.3617 249.426 10.6312 249.729 10.0035C250.043 9.37587 250.475 8.88347 251.027 8.52635C251.59 8.16923 252.223 7.99067 252.927 7.99067C253.543 7.99067 254.085 8.13135 254.55 8.41272C255.026 8.69409 255.367 9.07286 255.573 9.54902V8.18546H257.228V16.1396C257.228 16.8538 257.066 17.4544 256.741 17.9414C256.427 18.4392 255.973 18.8126 255.378 19.0615C254.793 19.3212 254.095 19.4511 253.284 19.4511ZM253.267 14.9221C253.938 14.9221 254.474 14.6786 254.875 14.1916C255.286 13.7046 255.497 13.0337 255.508 12.1787C255.518 11.616 255.432 11.1344 255.248 10.734C255.064 10.3228 254.799 10.009 254.452 9.79251C254.117 9.56525 253.722 9.45162 253.267 9.45162C252.564 9.45162 252.018 9.70053 251.628 10.1983C251.249 10.6853 251.06 11.3455 251.06 12.1787C251.06 13.0229 251.255 13.6938 251.644 14.1916C252.045 14.6786 252.586 14.9221 253.267 14.9221ZM258.49 16.8214V5.29601H260.211V10.1334L260 10.1009C260.097 9.61395 260.276 9.21895 260.535 8.91594C260.795 8.6021 261.114 8.36943 261.493 8.21793C261.872 8.06642 262.289 7.99067 262.743 7.99067C263.371 7.99067 263.901 8.13135 264.334 8.41272C264.767 8.68327 265.091 9.06745 265.308 9.56525C265.535 10.0631 265.649 10.6312 265.649 11.2697V16.8214H263.928V11.7242C263.928 10.945 263.793 10.3715 263.522 10.0035C263.262 9.62477 262.851 9.43539 262.289 9.43539C261.661 9.43539 261.158 9.6356 260.779 10.036C260.4 10.4256 260.211 10.9992 260.211 11.7567V16.8214H258.49ZM269.8 16.8214C268.978 16.8214 268.372 16.632 267.982 16.2532C267.592 15.8744 267.398 15.2846 267.398 14.4838V6.15635H269.118V14.354C269.118 14.7544 269.205 15.0303 269.378 15.1818C269.551 15.3333 269.816 15.4091 270.173 15.4091H271.407V16.8214H269.8ZM266.083 9.59772V8.18546H271.407V9.59772H266.083Z" fill="#619111"/>
<path d="M336.235 5.41102C339.223 8.39935 339.223 13.2441 336.235 16.2324C333.246 19.2204 328.402 19.2204 325.414 16.2324C322.426 13.2441 322.425 8.39935 325.413 5.41102C328.402 2.42271 333.247 2.42271 336.235 5.41102ZM332.063 5.98443C331.379 5.30011 330.269 5.30011 329.585 5.98443L325.988 9.58158C325.304 10.2659 325.304 11.3754 325.988 12.0597L329.585 15.6569C330.269 16.3412 331.379 16.3412 332.063 15.6569L335.66 12.0597C336.345 11.3754 336.345 10.2659 335.66 9.58158L332.063 5.98443Z" fill="#619111"/>
<path d="M343.075 16.8214V4.87462H344.893V16.8214H343.075ZM343.941 11.8695V10.2074H350.433V11.8695H343.941ZM343.941 6.53678V4.87462H351.126V6.53678H343.941ZM352.012 16.8214V4.44177H353.743V16.8214H352.012ZM358.859 16.9945C358.04 16.9945 357.312 16.7983 356.677 16.4058C356.054 16.0134 355.564 15.4593 355.206 14.7437C354.848 14.028 354.669 13.1912 354.669 12.2331C354.669 11.2635 354.848 10.4267 355.206 9.72257C355.564 9.00692 356.054 8.45287 356.677 8.06042C357.312 7.66796 358.04 7.47174 358.859 7.47174C359.69 7.47174 360.417 7.66796 361.041 8.06042C361.675 8.45287 362.172 9.00692 362.53 9.72257C362.887 10.4267 363.066 11.2635 363.066 12.2331C363.066 13.1912 362.887 14.028 362.53 14.7437C362.172 15.4593 361.675 16.0134 361.041 16.4058C360.417 16.7983 359.69 16.9945 358.859 16.9945ZM358.859 15.4362C359.586 15.4362 360.169 15.1823 360.608 14.6744C361.046 14.155 361.266 13.3412 361.266 12.2331C361.266 11.125 361.046 10.317 360.608 9.80914C360.169 9.28972 359.586 9.03001 358.859 9.03001C358.143 9.03001 357.566 9.28972 357.128 9.80914C356.689 10.317 356.47 11.125 356.47 12.2331C356.47 13.3412 356.689 14.155 357.128 14.6744C357.566 15.1823 358.143 15.4362 358.859 15.4362ZM365.292 16.8214L363.024 7.64488H364.773L366.92 16.8214H365.292ZM366.262 16.8214L368.426 7.64488H369.898L367.751 16.8214H366.262ZM371.248 16.8214L369.101 7.64488H370.659L372.876 16.8214H371.248ZM372.218 16.8214L374.295 7.64488H375.975L373.707 16.8214H372.218ZM380.867 16.9945C379.898 16.9945 379.119 16.6482 378.53 15.9556C377.941 15.2515 377.647 14.2646 377.647 12.9949V11.4713C377.647 10.2016 377.941 9.22046 378.53 8.5279C379.119 7.82379 379.898 7.47174 380.867 7.47174C381.583 7.47174 382.212 7.66219 382.755 8.0431C383.309 8.42401 383.742 8.97229 384.053 9.68794C384.365 10.392 384.521 11.2404 384.521 12.2331C384.521 13.2258 384.365 14.08 384.053 14.7956C383.742 15.4997 383.309 16.0422 382.755 16.4231C382.212 16.804 381.583 16.9945 380.867 16.9945ZM376.4 16.8214V4.44177H378.132V9.7572L377.872 12.2331L378.132 14.6917V16.8214H376.4ZM380.383 15.4709C381.075 15.4709 381.635 15.2169 382.062 14.709C382.501 14.1896 382.72 13.3643 382.72 12.2331C382.72 11.1019 382.501 10.2824 382.062 9.77451C381.635 9.25509 381.075 8.99538 380.383 8.99538C379.69 8.99538 379.125 9.25509 378.686 9.77451C378.259 10.2824 378.045 11.1019 378.045 12.2331C378.045 13.3643 378.259 14.1896 378.686 14.709C379.125 15.2169 379.69 15.4709 380.383 15.4709ZM389.166 16.9945C388.346 16.9945 387.619 16.7983 386.984 16.4058C386.361 16.0134 385.87 15.4593 385.512 14.7437C385.154 14.028 384.975 13.1912 384.975 12.2331C384.975 11.2635 385.154 10.4267 385.512 9.72257C385.87 9.00692 386.361 8.45287 386.984 8.06042C387.619 7.66796 388.346 7.47174 389.166 7.47174C389.997 7.47174 390.724 7.66796 391.347 8.06042C391.982 8.45287 392.478 9.00692 392.836 9.72257C393.194 10.4267 393.373 11.2635 393.373 12.2331C393.373 13.1912 393.194 14.028 392.836 14.7437C392.478 15.4593 391.982 16.0134 391.347 16.4058C390.724 16.7983 389.997 16.9945 389.166 16.9945ZM389.166 15.4362C389.893 15.4362 390.476 15.1823 390.914 14.6744C391.353 14.155 391.572 13.3412 391.572 12.2331C391.572 11.125 391.353 10.317 390.914 9.80914C390.476 9.28972 389.893 9.03001 389.166 9.03001C388.45 9.03001 387.873 9.28972 387.434 9.80914C386.995 10.317 386.776 11.125 386.776 12.2331C386.776 13.3412 386.995 14.155 387.434 14.6744C387.873 15.1823 388.45 15.4362 389.166 15.4362ZM397.486 16.9945C396.585 16.9945 395.881 16.7579 395.373 16.2846C394.877 15.7998 394.629 15.0842 394.629 14.1377V5.74033L396.36 5.39405V13.826C396.36 14.357 396.487 14.7494 396.741 15.0034C396.995 15.2458 397.365 15.367 397.849 15.367C398.08 15.367 398.294 15.3497 398.49 15.315C398.698 15.2804 398.9 15.24 399.096 15.1938V16.8214C398.854 16.8791 398.605 16.9195 398.351 16.9425C398.109 16.9772 397.82 16.9945 397.486 16.9945ZM393.33 9.15121V7.64488H399.009V9.15121H393.33Z" fill="#619111"/>
<path d="M472.134 17.014V5.10189H479.873V6.38314H473.623V10.3481H479.059V11.6466H473.623V15.7327H479.873V17.014H472.134ZM480.471 17.014L484.903 11.0406L480.54 5.10189H482.306L485.769 9.7767H485.908L489.388 5.10189H491.085L486.721 10.9887L491.137 17.014H489.388L485.856 12.2353H485.717L482.168 17.014H480.471ZM492.518 17.014V5.10189H497.73C498.492 5.10189 499.098 5.20001 499.548 5.39623C500.01 5.58092 500.35 5.84063 500.569 6.17537C500.8 6.51011 500.956 6.90833 501.037 7.37004C501.118 7.82021 501.158 8.31654 501.158 8.85905C501.158 9.37848 501.118 9.86904 501.037 10.3308C500.968 10.7809 500.818 11.1791 500.587 11.5254C500.356 11.8717 500.01 12.143 499.548 12.3392C499.086 12.5354 498.469 12.6335 497.695 12.6335H494.007V17.014H492.518ZM494.007 11.335H497.21C497.776 11.335 498.22 11.2888 498.544 11.1965C498.878 11.1041 499.127 10.9598 499.288 10.7636C499.45 10.5558 499.554 10.2961 499.6 9.98447C499.646 9.67281 499.669 9.29768 499.669 8.85905C499.669 8.42043 499.646 8.04529 499.6 7.73364C499.565 7.42198 499.467 7.16804 499.305 6.97182C499.155 6.77559 498.913 6.63131 498.578 6.53896C498.255 6.43508 497.811 6.38314 497.245 6.38314H494.007V11.335ZM507.414 17.1525C506.491 17.1525 505.723 17.1063 505.112 17.014C504.511 16.9101 504.032 16.7312 503.675 16.4773C503.328 16.2233 503.074 15.8713 502.913 15.4211C502.751 14.9594 502.647 14.3765 502.601 13.6724C502.555 12.9567 502.532 12.0852 502.532 11.0579C502.532 10.0306 502.555 9.16493 502.601 8.46083C502.647 7.74518 502.751 7.16227 502.913 6.7121C503.074 6.25039 503.328 5.89257 503.675 5.63863C504.032 5.38469 504.511 5.21155 505.112 5.11921C505.723 5.01532 506.491 4.96338 507.414 4.96338C508.338 4.96338 509.1 5.01532 509.7 5.11921C510.312 5.21155 510.791 5.38469 511.137 5.63863C511.495 5.89257 511.754 6.25039 511.916 6.7121C512.078 7.16227 512.182 7.74518 512.228 8.46083C512.274 9.16493 512.297 10.0306 512.297 11.0579C512.297 12.0852 512.274 12.9567 512.228 13.6724C512.182 14.3765 512.078 14.9594 511.916 15.4211C511.754 15.8713 511.495 16.2233 511.137 16.4773C510.791 16.7312 510.312 16.9101 509.7 17.014C509.1 17.1063 508.338 17.1525 507.414 17.1525ZM507.414 15.8713C508.049 15.8713 508.574 15.8539 508.99 15.8193C509.405 15.7731 509.734 15.675 509.977 15.525C510.219 15.3749 510.404 15.1325 510.531 14.7978C510.658 14.4515 510.733 13.9783 510.756 13.378C510.791 12.7778 510.808 12.0044 510.808 11.0579C510.808 10.1114 510.791 9.33808 510.756 8.73785C510.733 8.13763 510.658 7.67015 510.531 7.33541C510.404 6.98913 510.219 6.74096 509.977 6.59091C509.734 6.44085 509.405 6.34851 508.99 6.31388C508.574 6.26771 508.049 6.24462 507.414 6.24462C506.78 6.24462 506.254 6.26771 505.839 6.31388C505.435 6.34851 505.106 6.44085 504.852 6.59091C504.609 6.74096 504.425 6.98913 504.298 7.33541C504.182 7.67015 504.107 8.13763 504.073 8.73785C504.038 9.33808 504.021 10.1114 504.021 11.0579C504.021 12.0044 504.038 12.7778 504.073 13.378C504.107 13.9783 504.182 14.4515 504.298 14.7978C504.425 15.1325 504.609 15.3749 504.852 15.525C505.106 15.675 505.435 15.7731 505.839 15.8193C506.254 15.8539 506.78 15.8713 507.414 15.8713ZM514.492 17.014V5.10189H519.964C520.714 5.10189 521.308 5.19424 521.747 5.37892C522.197 5.55206 522.526 5.806 522.734 6.14074C522.953 6.46394 523.097 6.84485 523.167 7.28347C523.236 7.72209 523.271 8.18957 523.271 8.68591C523.271 9.11299 523.23 9.55739 523.149 10.0191C523.08 10.4693 522.913 10.879 522.647 11.2484C522.393 11.6178 521.989 11.889 521.435 12.0622L523.444 17.014H521.851L519.877 12.0102L520.293 12.218C520.212 12.2411 520.114 12.2584 519.998 12.2699C519.883 12.2815 519.727 12.2872 519.531 12.2872H515.981V17.014H514.492ZM515.981 10.9887H519.323C519.9 10.9887 520.35 10.9425 520.673 10.8502C521.008 10.7578 521.251 10.6135 521.401 10.4173C521.562 10.2211 521.666 9.98447 521.712 9.70744C521.758 9.41887 521.782 9.07836 521.782 8.68591C521.782 8.29346 521.758 7.95872 521.712 7.68169C521.678 7.39313 521.585 7.1565 521.435 6.97182C521.297 6.77559 521.066 6.63131 520.743 6.53896C520.431 6.43508 519.998 6.38314 519.444 6.38314H515.981V10.9887Z" fill="#619111"/>
<path d="M464.126 5.38722C464.613 5.6683 464.913 6.1876 464.913 6.74953V14.898C464.913 15.4599 464.613 15.9791 464.126 16.2603L462.412 17.2495L456.281 13.7105L450.152 17.2486L448.44 16.2603C447.953 15.9792 447.653 15.4601 447.653 14.898V6.74953C447.653 6.18748 447.953 5.66825 448.44 5.38722L450.149 4.39992V4.40089L456.281 7.94191L462.413 4.40089V4.39796L464.126 5.38722Z" fill="#619111"/>
<path d="M630.798 18.1909C629.791 18.1909 628.888 17.9702 628.088 17.5289C627.288 17.0875 626.654 16.4668 626.185 15.6669C625.73 14.8531 625.502 13.9014 625.502 12.8118C625.502 11.6946 625.743 10.736 626.226 9.93604C626.709 9.13608 627.357 8.52231 628.171 8.09474C628.985 7.65337 629.888 7.43269 630.881 7.43269C631.888 7.43269 632.791 7.65337 633.591 8.09474C634.405 8.52231 635.046 9.13608 635.515 9.93604C635.998 10.736 636.239 11.6946 636.239 12.8118C636.239 13.8462 636.005 14.7703 635.536 15.5841C635.081 16.3979 634.44 17.0392 633.612 17.5082C632.798 17.9633 631.86 18.1909 630.798 18.1909ZM630.819 16.1634C631.412 16.1634 631.929 16.0186 632.371 15.7289C632.826 15.4255 633.184 15.0186 633.446 14.5083C633.709 13.998 633.84 13.4187 633.84 12.7704C633.84 12.0946 633.709 11.5084 633.446 11.0119C633.184 10.5153 632.826 10.136 632.371 9.87398C631.929 9.59813 631.419 9.4602 630.84 9.4602C630.233 9.4602 629.702 9.60502 629.247 9.89467C628.805 10.1843 628.467 10.5843 628.233 11.0946C627.998 11.5912 627.881 12.1635 627.881 12.8118C627.881 13.5152 628.012 14.1221 628.274 14.6324C628.55 15.1289 628.909 15.5082 629.35 15.7703C629.805 16.0324 630.295 16.1634 630.819 16.1634Z" fill="#619111"/>
<path d="M618.22 18.1944C617.2 18.1944 616.324 17.953 615.593 17.4703C614.876 16.9738 614.317 16.3186 613.917 15.5049C613.531 14.6911 613.338 13.7808 613.338 12.7739C613.338 11.7809 613.531 10.8843 613.917 10.0844C614.317 9.27061 614.883 8.62926 615.614 8.16031C616.345 7.67757 617.214 7.4362 618.22 7.4362C618.938 7.4362 619.607 7.58792 620.227 7.89136C620.848 8.181 621.351 8.60857 621.738 9.17406V3.46394H624.096V17.9461H621.8L621.738 16.3945C621.407 16.9462 620.931 17.3875 620.31 17.7186C619.689 18.0358 618.993 18.1944 618.22 18.1944ZM618.738 16.1462C619.358 16.1462 619.889 16.0014 620.331 15.7117C620.772 15.4221 621.117 15.029 621.365 14.5325C621.613 14.0222 621.738 13.4498 621.738 12.8153C621.738 12.0843 621.593 11.4705 621.303 10.974C621.027 10.4775 620.655 10.1051 620.186 9.8568C619.731 9.60853 619.241 9.4844 618.717 9.4844C618.138 9.4844 617.62 9.62922 617.165 9.91886C616.724 10.1947 616.372 10.5809 616.11 11.0774C615.862 11.5602 615.738 12.1326 615.738 12.7946C615.738 13.4429 615.869 14.0222 616.131 14.5325C616.393 15.029 616.745 15.4221 617.186 15.7117C617.641 16.0014 618.158 16.1462 618.738 16.1462Z" fill="#619111"/>
<path d="M607.377 18.1909C606.343 18.1909 605.439 17.9633 604.667 17.5082C603.895 17.0392 603.288 16.4048 602.846 15.6048C602.419 14.791 602.205 13.86 602.205 12.8118C602.205 11.7222 602.419 10.7774 602.846 9.97742C603.288 9.17745 603.895 8.55679 604.667 8.11543C605.453 7.66027 606.364 7.43269 607.398 7.43269C608.405 7.43269 609.281 7.65337 610.025 8.09474C610.77 8.52231 611.356 9.11539 611.784 9.87398C612.212 10.6326 612.425 11.4946 612.425 12.4601C612.425 12.6532 612.418 12.8256 612.405 12.9773C612.405 13.129 612.391 13.2945 612.363 13.4738H604.564C604.605 14.0117 604.743 14.4945 604.977 14.9221C605.212 15.3358 605.529 15.66 605.929 15.8944C606.343 16.1289 606.812 16.2461 607.336 16.2461C607.901 16.2461 608.377 16.122 608.763 15.8737C609.163 15.6255 609.474 15.2669 609.694 14.7979H612.156C611.963 15.4186 611.653 15.9841 611.225 16.4944C610.812 17.0047 610.281 17.4185 609.632 17.7357C608.998 18.0392 608.246 18.1909 607.377 18.1909ZM604.584 11.8394H610.025C610.012 11.0808 609.743 10.4808 609.219 10.0395C608.694 9.59813 608.067 9.37744 607.336 9.37744C606.674 9.37744 606.074 9.57744 605.536 9.97742C605.012 10.3774 604.695 10.9981 604.584 11.8394Z" fill="#619111"/>
<path d="M591.666 17.9461V3.46394H596.445C597.466 3.46394 598.342 3.62256 599.073 3.93979C599.804 4.25702 600.369 4.71907 600.769 5.32594C601.169 5.93281 601.369 6.6914 601.369 7.60171C601.369 8.66374 601.086 9.49819 600.521 10.1051C599.969 10.7119 599.204 11.1257 598.224 11.3464L602.3 17.9461H599.507L595.887 11.7395H594.025V17.9461H591.666ZM594.025 9.75335H596.404C597.066 9.75335 597.583 9.6637 597.955 9.4844C598.342 9.30509 598.611 9.05683 598.762 8.7396C598.914 8.40858 598.99 8.02928 598.99 7.60171C598.99 7.16035 598.914 6.78106 598.762 6.46383C598.611 6.1328 598.342 5.88454 597.955 5.71903C597.583 5.53972 597.066 5.45007 596.404 5.45007H594.025V9.75335Z" fill="#619111"/>
<path fill-rule="evenodd" clip-rule="evenodd" d="M577.985 9.75058C576.353 9.75058 575.031 11.073 575.031 12.7042C575.031 14.3355 576.353 15.6579 577.985 15.6579H588.275V17.9446H577.985C575.09 17.9446 572.744 15.5984 572.744 12.7042C572.744 9.81006 575.09 7.46387 577.985 7.46387H585.702V9.75058H577.985Z" fill="#619111"/>
<path fill-rule="evenodd" clip-rule="evenodd" d="M585.231 8.60687L581.752 5.12777L583.369 3.51082L588.465 8.60687L583.369 13.7029L581.752 12.086L585.231 8.60687Z" fill="#619111"/>
<defs>
<clipPath id="clip0_2046_1789">
<rect width="20.9675" height="20.9675" fill="white" transform="matrix(-1 0 0 1 64.7163 0.337631)"/>
</clipPath>
</defs>
</svg>
